<svg width="4533" height="1219" viewBox="0 0 4533 1219" fill="none" xmlns="http://www.w3.org/2000/svg">
<path d="M-1.2517e-06 968L306 268H538L844 968H600L374 380H466L240 968H-1.2517e-06ZM182 846L242 676H564L624 846H182ZM856.664 968V823L1246.66 369L1275.66 451H866.664V268H1483.66V413L1093.66 867L1064.66 785H1499.66V968H856.664Z" fill="white"/>
<rect x="1595" y="166" width="2938" height="905" fill="#3B82F6"/>
<path d="M1966 973C1905.33 973 1855.33 964.667 1816 948C1776.67 932 1747.67 909.667 1729 881C1710.33 852.333 1701 820 1701 784C1701 742.667 1712.33 698 1735 650C1757.67 601.333 1790.33 553.667 1833 507C1833 507 1833.33 506.667 1834 506C1813.33 498.667 1794 490.333 1776 481C1758 471.667 1742 461 1728 449C1712 435.667 1700 421 1692 405C1684 389 1680 373.667 1680 359C1680 337.667 1688 319.667 1704 305C1720 289.667 1744.33 282 1777 282C1787.67 282 1799 283 1811 285C1823 286.333 1835.67 289 1849 293C1858.33 295.667 1863 301.333 1863 310C1863 314.667 1860.33 319.333 1855 324C1850.33 328 1844.33 328.667 1837 326C1815 320 1796 317 1780 317C1760 317 1744.67 321 1734 329C1724 337 1719 347 1719 359C1719 377 1730.33 397.667 1753 421C1776.33 443.667 1812.33 462.667 1861 478C1901 438.667 1946.67 403.333 1998 372C2050 340 2106 314.667 2166 296C2226 277.333 2288.67 268 2354 268C2417.33 268 2464.67 278.667 2496 300C2527.33 321.333 2543 346 2543 374C2543 400.667 2529 427.667 2501 455C2473.67 481.667 2432.67 502 2378 516C2343.33 524.667 2302.67 532 2256 538C2210 543.333 2162.33 546 2113 546C2071.67 546 2030.33 544 1989 540C1948.33 535.333 1909.67 528 1873 518C1832.33 561.333 1800 606.333 1776 653C1752.67 699 1741 742 1741 782C1741 826.667 1758.33 864 1793 894C1827.67 924 1884.33 939 1963 939C1973 939 1983.67 938.333 1995 937C2006.33 936.333 2018 935.667 2030 935C2071.33 930.333 2115.67 918.667 2163 900C2211 882 2258.33 857.667 2305 827C2352.33 795.667 2395.67 759.667 2435 719C2439.67 714.333 2444.33 712 2449 712C2453.67 712 2457.33 713.667 2460 717C2463.33 720.333 2465 724.333 2465 729C2465 733.667 2463 738 2459 742C2421 784.667 2377 822.333 2327 855C2277.67 888.333 2227.33 914.667 2176 934C2124.67 954 2076.67 966 2032 970C2009.33 972 1987.33 973 1966 973ZM1902 490C1934 496.667 1967 501.667 2001 505C2035.67 508.333 2070.33 510 2105 510C2158.33 510 2208.33 507 2255 501C2302.33 495 2339.33 488.333 2366 481C2413.33 469 2448 453.667 2470 435C2492.67 416.333 2504 398 2504 380C2504 359.333 2491 341.667 2465 327C2439 311.667 2402 304 2354 304C2294.67 304 2237.67 312.333 2183 329C2128.33 345 2077 367 2029 395C1981.67 423 1939.33 454.667 1902 490ZM2501.92 866C2479.26 866 2463.26 859.667 2453.92 847C2444.59 833.667 2439.92 817.333 2439.92 798C2439.92 782 2442.26 764.667 2446.92 746C2452.26 726.667 2458.92 707.667 2466.92 689C2467.59 663 2474.59 637.333 2487.92 612C2501.92 586.667 2520.59 565.667 2543.92 549C2567.92 532.333 2595.92 524 2627.92 524C2659.26 524 2680.92 533 2692.92 551C2705.59 569 2711.92 590.333 2711.92 615C2711.92 629.667 2710.26 644.667 2706.92 660C2703.59 674.667 2699.26 688.667 2693.92 702C2688.59 715.333 2681.92 729 2673.92 743C2665.92 756.333 2656.92 769.667 2646.92 783C2666.92 779.667 2684.26 773.333 2698.92 764C2714.26 754 2729.59 740.333 2744.92 723C2760.26 705.667 2778.26 683.667 2798.92 657C2802.92 652.333 2807.26 650 2811.92 650C2817.26 650 2821.59 651.667 2824.92 655C2828.92 658.333 2830.92 662.667 2830.92 668C2830.92 672 2829.59 675.667 2826.92 679C2807.59 705.667 2787.92 729.667 2767.92 751C2748.59 772.333 2726.59 789 2701.92 801C2677.26 813 2647.59 819 2612.92 819C2596.92 833 2579.59 844.333 2560.92 853C2542.26 861.667 2522.59 866 2501.92 866ZM2559.92 607C2551.92 613 2542.26 625 2530.92 643C2519.59 661 2509.26 680.667 2499.92 702C2501.26 722.667 2509.59 741.333 2524.92 758C2540.92 774 2565.26 783 2597.92 785C2621.92 761.667 2641.26 734.333 2655.92 703C2670.59 671 2677.92 642.333 2677.92 617C2677.92 599.667 2673.92 585.667 2665.92 575C2657.92 564.333 2645.26 559 2627.92 559C2615.92 559 2604.26 561 2592.92 565C2581.59 569 2571.26 574.333 2561.92 581C2565.26 584.333 2566.92 588.333 2566.92 593C2566.92 598.333 2564.59 603 2559.92 607ZM2474.92 796C2474.92 806.667 2476.92 815.333 2480.92 822C2485.59 828 2492.59 831 2501.92 831C2521.26 831 2540.92 825 2560.92 813C2541.59 808.333 2525.26 801 2511.92 791C2498.59 780.333 2488.26 768.333 2480.92 755C2476.92 771 2474.92 784.667 2474.92 796ZM2760.3 872C2755.64 872 2751.3 870.333 2747.3 867C2743.3 863.667 2741.3 859.667 2741.3 855C2741.3 853.667 2741.97 851 2743.3 847C2756.64 818.333 2769.64 792.333 2782.3 769C2795.64 745 2809.3 721.667 2823.3 699C2829.3 689.667 2835.97 677.667 2843.3 663C2851.3 647.667 2858.97 631.333 2866.3 614C2873.64 596 2879.64 579 2884.3 563C2889.64 547 2892.3 534 2892.3 524C2892.3 518.667 2891.97 515 2891.3 513C2890.64 512.333 2890.3 511 2890.3 509C2890.3 503.667 2892.64 499.333 2897.3 496C2902.64 492 2907.64 490 2912.3 490C2917.64 490 2922.64 492.667 2927.3 498C2931.97 502.667 2934.3 511 2934.3 523C2934.3 533 2931.97 546.333 2927.3 563C2923.3 579 2916.3 598.333 2906.3 621C2900.97 632.333 2895.97 643 2891.3 653C2886.64 662.333 2881.97 671.333 2877.3 680C2903.3 652.667 2929.97 628.333 2957.3 607C2984.64 585 3008.97 567.667 3030.3 555C3051.64 542.333 3065.97 536 3073.3 536C3081.3 536 3086.97 538.333 3090.3 543C3093.64 547.667 3095.3 553 3095.3 559C3095.3 567.667 3092.64 577.667 3087.3 589C3082.64 599.667 3077.64 609.333 3072.3 618C3066.97 626.667 3063.3 632.667 3061.3 636C3053.97 647.333 3043.97 664.333 3031.3 687C3018.64 709.667 3007.97 731.667 2999.3 753C2996.64 760.333 2993.97 768 2991.3 776C2989.3 783.333 2988.3 789.667 2988.3 795C2988.3 803.667 2991.97 808 2999.3 808C3005.97 808 3015.64 804.667 3028.3 798C3044.3 789.333 3058.97 778.333 3072.3 765C3086.3 751 3098.3 739 3108.3 729C3108.97 728.333 3111.97 725 3117.3 719C3123.3 713 3128.97 707 3134.3 701C3140.3 695 3143.3 692 3143.3 692C3145.97 688.667 3149.3 687 3153.3 687C3156.64 687 3159.64 689 3162.3 693C3165.64 696.333 3167.3 700.667 3167.3 706C3167.3 712 3165.64 717 3162.3 721C3152.3 735 3138.64 750.333 3121.3 767C3103.97 783.667 3088.64 797.333 3075.3 808C3061.3 818.667 3046.97 827.333 3032.3 834C3018.3 840 3004.3 843 2990.3 843C2978.3 843 2968.3 840.667 2960.3 836C2952.3 831.333 2948.3 819 2948.3 799C2948.3 773.667 2954.64 748.667 2967.3 724C2980.64 699.333 2995.3 675 3011.3 651C3027.97 627 3041.64 604.333 3052.3 583C3035.64 593 3013.3 608.333 2985.3 629C2957.97 649.667 2928.97 674 2898.3 702C2868.3 729.333 2840.97 759.333 2816.3 792C2811.64 800.667 2806.64 810 2801.3 820C2795.97 830 2790.64 841 2785.3 853C2779.3 865.667 2770.97 872 2760.3 872ZM3197.47 882C3172.8 882 3154.14 875.333 3141.47 862C3128.8 849.333 3122.47 837.333 3122.47 826C3122.47 811.333 3129.8 804 3144.47 804C3147.8 804 3151.14 804.333 3154.47 805C3157.8 805.667 3161.47 807 3165.47 809C3179.47 815.667 3194.47 820.667 3210.47 824C3227.14 826.667 3243.14 828.333 3258.47 829C3264.47 827.667 3270.14 819 3275.47 803C3280.8 787 3284.8 771.667 3287.47 757C3289.47 743 3290.47 728.667 3290.47 714C3290.47 692.667 3288.8 671 3285.47 649C3282.14 627 3279.14 605 3276.47 583C3258.47 607 3239.47 631.333 3219.47 656C3199.47 680 3180.8 702 3163.47 722C3146.14 742 3131.47 757.333 3119.47 768C3116.8 770.667 3113.47 772 3109.47 772C3104.8 772 3100.8 770.333 3097.47 767C3094.14 763 3092.47 758.667 3092.47 754C3092.47 748 3094.8 743 3099.47 739C3105.47 733 3115.14 722.667 3128.47 708C3141.8 693.333 3156.8 676 3173.47 656C3190.8 635.333 3208.14 614 3225.47 592C3242.8 569.333 3258.8 548 3273.47 528C3274.14 521.333 3274.8 515 3275.47 509C3276.14 502.333 3277.14 496 3278.47 490C3283.14 469.333 3291.8 453.667 3304.47 443C3317.8 431.667 3329.47 426 3339.47 426C3351.47 426 3357.47 432.333 3357.47 445C3357.47 454.333 3352.47 468 3342.47 486C3337.8 493.333 3332.8 501.333 3327.47 510C3322.14 518 3316.14 526.667 3309.47 536C3309.47 561.333 3311.8 587.667 3316.47 615C3321.14 641.667 3323.8 661.667 3324.47 675C3325.14 681.667 3325.47 688.333 3325.47 695C3326.14 701.667 3326.47 708.667 3326.47 716C3326.47 734.667 3324.8 753.333 3321.47 772C3318.8 790.667 3313.14 807.667 3304.47 823C3322.47 816.333 3341.14 807.667 3360.47 797C3379.8 785.667 3396.47 773.667 3410.47 761C3423.8 749.667 3436.14 737.667 3447.47 725C3458.8 712.333 3469.47 700.667 3479.47 690C3482.14 686.667 3485.47 685 3489.47 685C3492.8 685 3495.8 687 3498.47 691C3501.8 694.333 3503.47 698.667 3503.47 704C3503.47 710 3501.8 715 3498.47 719C3488.47 733 3474.47 748.667 3456.47 766C3439.14 782.667 3423.8 796 3410.47 806C3393.14 818.667 3371.8 830 3346.47 840C3321.14 850 3295.14 857.333 3268.47 862C3255.14 870 3239.47 876 3221.47 880C3216.8 880.667 3212.47 881 3208.47 881C3204.47 881.667 3200.8 882 3197.47 882ZM3457.43 851C3446.76 851 3438.76 847.333 3433.43 840C3428.1 832.667 3425.43 823.667 3425.43 813C3425.43 795.667 3430.1 777.667 3439.43 759C3448.76 739.667 3460.1 720.333 3473.43 701C3486.76 681.667 3501.43 661.667 3517.43 641C3520.76 637 3525.43 630 3531.43 620C3538.1 610 3544.1 599.667 3549.43 589C3554.76 578.333 3557.1 570 3556.43 564C3555.76 552.667 3558.1 544.333 3563.43 539C3568.76 533 3574.76 530 3581.43 530C3588.1 530 3593.1 532.667 3596.43 538C3600.43 544 3602.43 551.333 3602.43 560C3602.43 569.333 3599.1 581 3592.43 595C3586.43 608.333 3575.76 625.333 3560.43 646C3548.43 662 3535.1 679.333 3520.43 698C3506.43 716 3494.43 733.667 3484.43 751C3474.43 768.333 3469.43 783 3469.43 795C3469.43 803.667 3473.1 808 3480.43 808C3485.1 808 3491.76 806 3500.43 802C3511.1 796.667 3525.76 786.333 3544.43 771C3563.76 755.667 3583.76 738.333 3604.43 719C3625.76 699 3645.1 679.667 3662.43 661C3680.43 642.333 3693.43 627.667 3701.43 617C3705.43 611 3710.43 608 3716.43 608C3721.1 608 3725.43 609.667 3729.43 613C3733.43 616.333 3735.43 620.667 3735.43 626C3735.43 628.667 3734.43 631.667 3732.43 635C3728.43 642.333 3723.1 652.667 3716.43 666C3709.76 679.333 3703.1 693.667 3696.43 709C3690.43 724.333 3685.1 738.667 3680.43 752C3676.43 764.667 3674.43 774.333 3674.43 781C3674.43 788.333 3676.76 792 3681.43 792C3684.76 792 3688.76 790.333 3693.43 787C3698.76 783 3703.43 779.667 3707.43 777C3724.1 763.667 3739.43 749.667 3753.43 735C3768.1 719.667 3781.43 705.333 3793.43 692C3796.1 688.667 3799.43 687 3803.43 687C3806.76 687 3809.76 689 3812.43 693C3815.76 696.333 3817.43 700.667 3817.43 706C3817.43 712 3815.76 717 3812.43 721C3801.76 735 3787.76 750.667 3770.43 768C3753.1 784.667 3737.76 798 3724.43 808C3715.76 814 3705.43 820 3693.43 826C3682.1 831.333 3671.43 834 3661.43 834C3652.76 834 3645.76 831.667 3640.43 827C3635.76 821.667 3633.43 812.667 3633.43 800C3633.43 789.333 3635.1 777 3638.43 763C3642.43 749 3647.1 734.667 3652.43 720C3629.76 742.667 3604.1 765.333 3575.43 788C3547.43 810.667 3521.76 827.667 3498.43 839C3481.76 847 3468.1 851 3457.43 851ZM3836.88 868C3812.88 868 3796.55 861.333 3787.88 848C3779.22 834 3774.88 817.667 3774.88 799C3774.88 781.667 3776.88 764.333 3780.88 747C3785.55 729 3789.88 714 3793.88 702C3794.55 699.333 3795.55 696.667 3796.88 694C3795.55 692 3794.88 689.333 3794.88 686C3794.88 674.667 3798.88 667.667 3806.88 665C3818.88 634.333 3832.88 603.333 3848.88 572C3864.88 540 3881.22 510.333 3897.88 483C3914.55 455.667 3929.22 432.667 3941.88 414C3951.88 400 3963.88 383.333 3977.88 364C3992.55 344 4008.88 324.333 4026.88 305C4045.55 285.667 4065.55 269.667 4086.88 257C4108.22 243.667 4130.22 237 4152.88 237C4171.55 237 4184.55 241 4191.88 249C4199.88 257 4203.88 267.667 4203.88 281C4203.88 293.667 4200.88 308.333 4194.88 325C4188.88 341.667 4180.88 359 4170.88 377C4156.88 402.333 4137.55 430 4112.88 460C4088.22 490 4060.88 519.667 4030.88 549C4000.88 578.333 3969.55 605 3936.88 629C3904.22 653 3872.22 672.333 3840.88 687C3836.88 699.667 3831.55 716.333 3824.88 737C3818.22 757 3814.88 775.333 3814.88 792C3814.88 803.333 3817.22 813 3821.88 821C3826.55 828.333 3835.22 832 3847.88 832C3857.22 832 3868.88 829.333 3882.88 824C3897.55 818 3914.22 809 3932.88 797C3954.22 783 3974.55 766.333 3993.88 747C4013.22 727.667 4030.55 708.667 4045.88 690C4049.22 686 4052.22 684 4054.88 684C4058.22 684 4061.22 686.333 4063.88 691C4067.22 695 4068.88 699.667 4068.88 705C4068.88 711.667 4067.22 717 4063.88 721C4053.88 735 4040.22 750.333 4022.88 767C4006.22 783.667 3991.22 797 3977.88 807C3971.22 811.667 3963.22 817 3953.88 823C3944.55 829 3929.22 837.667 3907.88 849C3897.22 854.333 3885.55 858.667 3872.88 862C3860.88 866 3848.88 868 3836.88 868ZM3956.88 464C3936.88 493.333 3918.88 523 3902.88 553C3886.88 583 3872.88 611.333 3860.88 638C3896.88 616.667 3932.88 590 3968.88 558C4004.88 525.333 4037.88 491 4067.88 455C4097.88 419 4121.88 385 4139.88 353C4155.88 325 4163.88 303.667 4163.88 289C4163.88 277.667 4158.55 272 4147.88 272C4131.88 272 4114.55 279.333 4095.88 294C4077.22 308.667 4058.88 327 4040.88 349C4022.88 370.333 4006.55 391.667 3991.88 413C3977.22 434.333 3965.55 451.333 3956.88 464ZM4117.81 859C4081.15 859 4062.81 840.667 4062.81 804C4062.81 788.667 4066.15 771.333 4072.81 752C4082.81 722.667 4097.81 691 4117.81 657C4138.48 623 4159.48 590.333 4180.81 559H4144.81C4139.48 559 4135.15 557.333 4131.81 554C4129.15 550 4127.81 545.667 4127.81 541C4127.81 537 4129.15 533.333 4131.81 530C4135.15 526 4139.48 524 4144.81 524H4205.81C4213.15 514.667 4219.81 505.667 4225.81 497C4231.81 487.667 4237.81 478.667 4243.81 470C4253.15 446 4264.48 423 4277.81 401C4291.81 379 4308.81 361.333 4328.81 348C4332.15 346 4335.15 345 4337.81 345C4343.15 345 4347.81 347.667 4351.81 353C4355.81 357.667 4357.81 363 4357.81 369C4357.81 373.667 4356.15 378.667 4352.81 384C4350.81 386.667 4344.48 395 4333.81 409C4323.15 423 4310.48 440.333 4295.81 461C4281.15 481 4265.81 502 4249.81 524H4345.81C4351.81 524 4356.15 526 4358.81 530C4361.48 533.333 4362.81 537 4362.81 541C4362.81 545.667 4361.48 550 4358.81 554C4356.15 557.333 4351.81 559 4345.81 559H4225.81L4216.81 573C4210.81 581.667 4201.81 595.667 4189.81 615C4178.48 634.333 4166.15 655.667 4152.81 679C4140.15 702.333 4129.15 725 4119.81 747C4111.15 768.333 4106.81 786 4106.81 800C4106.81 816.667 4113.81 825 4127.81 825C4139.15 825 4156.15 819.667 4178.81 809C4202.15 797.667 4225.15 782.333 4247.81 763C4261.15 751.667 4273.48 739.667 4284.81 727C4296.15 714.333 4306.81 702.667 4316.81 692C4319.48 688.667 4322.81 687 4326.81 687C4330.15 687 4333.15 689 4335.81 693C4339.15 696.333 4340.81 700.667 4340.81 706C4340.81 712 4339.15 717 4335.81 721C4325.81 735 4311.81 750.667 4293.81 768C4276.48 784.667 4261.15 798 4247.81 808C4222.48 826.667 4195.15 840.667 4165.81 850C4147.81 856 4131.81 859 4117.81 859ZM4408.34 834C4400.34 834 4393.68 831.333 4388.34 826C4383.01 820 4380.34 813.333 4380.34 806C4380.34 798 4383.01 791.667 4388.34 787C4393.68 781.667 4400.34 779 4408.34 779C4416.34 779 4422.68 781.667 4427.34 787C4432.68 791.667 4435.34 798 4435.34 806C4435.34 813.333 4432.68 820 4427.34 826C4422.68 831.333 4416.34 834 4408.34 834Z" fill="white"/>
</svg>
